REM DIRINDEX 1\2,1\3
REM DIRNAME folder01,folder02,folder03
TITLE ""
FILE "0601-0640.mp3" MP3
  TRACK 01 AUDIO
    TITLE "0:"
    INDEX 01 00:00:00
  TRACK 02 AUDIO
    TITLE "2:cjc039_0601"
    INDEX 01 00:00:27
  TRACK 03 AUDIO
    TITLE "0:"
    INDEX 01 00:01:68
  TRACK 04 AUDIO
    TITLE "2:cjc039_0602"
    INDEX 01 00:02:40
  TRACK 05 AUDIO
    TITLE "0:"
    INDEX 01 00:04:01
  TRACK 06 AUDIO
    TITLE "2:cjc039_0603"
    INDEX 01 00:04:52
  TRACK 07 AUDIO
    TITLE "0:"
    INDEX 01 00:05:61
  TRACK 08 AUDIO
    TITLE "2:cjc039_0604"
    INDEX 01 00:06:35
  TRACK 09 AUDIO
    TITLE "0:"
    INDEX 01 00:07:64
  TRACK 10 AUDIO
    TITLE "2:cjc039_0605"
    INDEX 01 00:08:34
  TRACK 11 AUDIO
    TITLE "0:"
    INDEX 01 00:09:57
  TRACK 12 AUDIO
    TITLE "2:cjc039_0606"
    INDEX 01 00:10:35
  TRACK 13 AUDIO
    TITLE "0:"
    INDEX 01 00:11:68
  TRACK 14 AUDIO
    TITLE "2:cjc039_0607"
    INDEX 01 00:12:46
  TRACK 15 AUDIO
    TITLE "0:"
    INDEX 01 00:13:59
  TRACK 16 AUDIO
    TITLE "2:cjc039_0608"
    INDEX 01 00:14:43
  TRACK 17 AUDIO
    TITLE "0:"
    INDEX 01 00:16:08
  TRACK 18 AUDIO
    TITLE "2:cjc039_0609"
    INDEX 01 00:16:59
  TRACK 19 AUDIO
    TITLE "0:"
    INDEX 01 00:18:07
  TRACK 20 AUDIO
    TITLE "2:cjc039_0610"
    INDEX 01 00:18:58
  TRACK 21 AUDIO
    TITLE "0:"
    INDEX 01 00:20:10
  TRACK 22 AUDIO
    TITLE "2:cjc039_0611"
    INDEX 01 00:20:63
  TRACK 23 AUDIO
    TITLE "0:"
    INDEX 01 00:22:01
  TRACK 24 AUDIO
    TITLE "2:cjc039_0612"
    INDEX 01 00:22:48
  TRACK 25 AUDIO
    TITLE "0:"
    INDEX 01 00:23:71
  TRACK 26 AUDIO
    TITLE "2:cjc039_0613"
    INDEX 01 00:24:47
  TRACK 27 AUDIO
    TITLE "0:"
    INDEX 01 00:26:05
  TRACK 28 AUDIO
    TITLE "2:cjc039_0614"
    INDEX 01 00:26:60
  TRACK 29 AUDIO
    TITLE "0:"
    INDEX 01 00:28:13
  TRACK 30 AUDIO
    TITLE "2:cjc039_0615"
    INDEX 01 00:28:66
  TRACK 31 AUDIO
    TITLE "0:"
    INDEX 01 00:30:14
  TRACK 32 AUDIO
    TITLE "2:cjc039_0616"
    INDEX 01 00:30:65
  TRACK 33 AUDIO
    TITLE "0:"
    INDEX 01 00:31:71
  TRACK 34 AUDIO
    TITLE "2:cjc039_0617"
    INDEX 01 00:32:56
  TRACK 35 AUDIO
    TITLE "0:"
    INDEX 01 00:34:08
  TRACK 36 AUDIO
    TITLE "2:cjc039_0618"
    INDEX 01 00:34:63
  TRACK 37 AUDIO
    TITLE "0:"
    INDEX 01 00:36:03
  TRACK 38 AUDIO
    TITLE "2:cjc039_0619"
    INDEX 01 00:36:58
  TRACK 39 AUDIO
    TITLE "0:"
    INDEX 01 00:38:02
  TRACK 40 AUDIO
    TITLE "2:cjc039_0620"
    INDEX 01 00:38:53
  TRACK 41 AUDIO
    TITLE "0:"
    INDEX 01 00:40:01
  TRACK 42 AUDIO
    TITLE "2:cjc039_0621"
    INDEX 01 00:40:54
  TRACK 43 AUDIO
    TITLE "0:"
    INDEX 01 00:42:14
  TRACK 44 AUDIO
    TITLE "2:cjc039_0622"
    INDEX 01 00:42:68
  TRACK 45 AUDIO
    TITLE "0:"
    INDEX 01 00:44:44
  TRACK 46 AUDIO
    TITLE "2:cjc039_0623"
    INDEX 01 00:45:18
  TRACK 47 AUDIO
    TITLE "0:"
    INDEX 01 00:46:23
  TRACK 48 AUDIO
    TITLE "2:cjc039_0624"
    INDEX 01 00:47:05
  TRACK 49 AUDIO
    TITLE "0:"
    INDEX 01 00:48:22
  TRACK 50 AUDIO
    TITLE "2:cjc039_0625"
    INDEX 01 00:49:00
  TRACK 51 AUDIO
    TITLE "0:"
    INDEX 01 00:50:29
  TRACK 52 AUDIO
    TITLE "2:cjc039_0626"
    INDEX 01 00:51:05
  TRACK 53 AUDIO
    TITLE "0:"
    INDEX 01 00:52:32
  TRACK 54 AUDIO
    TITLE "2:cjc039_0627"
    INDEX 01 00:53:02
  TRACK 55 AUDIO
    TITLE "0:"
    INDEX 01 00:54:01
  TRACK 56 AUDIO
    TITLE "2:cjc039_0628"
    INDEX 01 00:54:54
  TRACK 57 AUDIO
    TITLE "0:"
    INDEX 01 00:55:67
  TRACK 58 AUDIO
    TITLE "2:cjc039_0629"
    INDEX 01 00:56:41
  TRACK 59 AUDIO
    TITLE "0:"
    INDEX 01 00:57:70
  TRACK 60 AUDIO
    TITLE "2:cjc039_0630"
    INDEX 01 00:58:42
  TRACK 61 AUDIO
    TITLE "0:"
    INDEX 01 00:59:59
  TRACK 62 AUDIO
    TITLE "2:cjc039_0631"
    INDEX 01 01:00:37
  TRACK 63 AUDIO
    TITLE "0:"
    INDEX 01 01:01:68
  TRACK 64 AUDIO
    TITLE "2:cjc039_0632"
    INDEX 01 01:02:50
  TRACK 65 AUDIO
    TITLE "0:"
    INDEX 01 01:04:17
  TRACK 66 AUDIO
    TITLE "2:cjc039_0633"
    INDEX 01 01:04:74
  TRACK 67 AUDIO
    TITLE "0:"
    INDEX 01 01:06:42
  TRACK 68 AUDIO
    TITLE "2:cjc039_0634"
    INDEX 01 01:07:12
  TRACK 69 AUDIO
    TITLE "0:"
    INDEX 01 01:08:38
  TRACK 70 AUDIO
    TITLE "2:cjc039_0635"
    INDEX 01 01:09:14
  TRACK 71 AUDIO
    TITLE "0:"
    INDEX 01 01:10:45
  TRACK 72 AUDIO
    TITLE "2:cjc039_0636"
    INDEX 01 01:11:23
  TRACK 73 AUDIO
    TITLE "0:"
    INDEX 01 01:12:38
  TRACK 74 AUDIO
    TITLE "2:cjc039_0637"
    INDEX 01 01:13:14
  TRACK 75 AUDIO
    TITLE "0:"
    INDEX 01 01:14:47
  TRACK 76 AUDIO
    TITLE "2:cjc039_0638"
    INDEX 01 01:15:27
  TRACK 77 AUDIO
    TITLE "0:"
    INDEX 01 01:16:50
  TRACK 78 AUDIO
    TITLE "2:cjc039_0639"
    INDEX 01 01:17:20
  TRACK 79 AUDIO
    TITLE "0:"
    INDEX 01 01:18:56
  TRACK 80 AUDIO
    TITLE "2:cjc039_0640"
    INDEX 01 01:19:34
  TRACK 81 AUDIO
    TITLE "0:"
    INDEX 01 01:20:44
